<svg xmlns="http://www.w3.org/2000/svg" xmlns:xlink="http://www.w3.org/1999/xlink" viewBox="0 0 1080 1080"><defs><style>.cls-1{fill:url(#linear-gradient);}.cls-2{fill:url(#linear-gradient-2);}.cls-3{fill:url(#linear-gradient-3);}.cls-4{fill:url(#linear-gradient-4);}.cls-5,.cls-6{fill:none;stroke:#fff27d;stroke-miterlimit:10;}.cls-5{stroke-width:10.95px;}.cls-6{stroke-width:9.39px;}.cls-7{fill:#fbcf61;}.cls-8{fill:#fe995a;}.cls-9{fill:#fcb45d;}.cls-10{fill:#fdf389;}.cls-11{fill:url(#linear-gradient-5);}.cls-12{fill:url(#linear-gradient-6);}.cls-13{fill:url(#linear-gradient-7);}.cls-14,.cls-15{font-size:65.7px;font-family:Inter-Black, Inter;font-weight:800;}.cls-14{fill:#03437e;}.cls-15{fill:#0192e7;}</style><linearGradient id="linear-gradient" x1="540" y1="1080" x2="540" gradientUnits="userSpaceOnUse"><stop offset="0" stop-color="#000b59"/><stop offset="1" stop-color="#000928"/></linearGradient><linearGradient id="linear-gradient-2" x1="303.37" y1="880.1" x2="883.86" y2="299.6" gradientTransform="translate(34.5 -31.99) rotate(3.97)" gradientUnits="userSpaceOnUse"><stop offset="0" stop-color="#fdf8af"/><stop offset="1" stop-color="#fdf386"/></linearGradient><linearGradient id="linear-gradient-3" x1="437.38" y1="451.07" x2="807.48" y2="821.17" gradientTransform="translate(34.5 -31.99) rotate(3.97)" gradientUnits="userSpaceOnUse"><stop offset="0" stop-color="#fadb62"/><stop offset="0.48" stop-color="#fad962"/><stop offset="0.66" stop-color="#fbd261"/><stop offset="0.78" stop-color="#fbc75f"/><stop offset="0.88" stop-color="#fdb65d"/><stop offset="0.97" stop-color="#fea05a"/><stop offset="1" stop-color="#ff9559"/></linearGradient><linearGradient id="linear-gradient-4" x1="303.98" y1="880.06" x2="884.48" y2="299.56" xlink:href="#linear-gradient-2"/><linearGradient id="linear-gradient-5" x1="251.95" y1="494.13" x2="431.17" y2="526.01" gradientUnits="userSpaceOnUse"><stop offset="0" stop-color="#00a3ff"/><stop offset="0.26" stop-color="#018ade"/><stop offset="0.84" stop-color="#024b89"/><stop offset="1" stop-color="#033971"/></linearGradient><linearGradient id="linear-gradient-6" x1="214.13" y1="544.49" x2="346.67" y2="568.07" xlink:href="#linear-gradient-5"/><linearGradient id="linear-gradient-7" x1="219.86" y1="539.51" x2="338.68" y2="560.64" xlink:href="#linear-gradient-5"/></defs><g id="Layer_4" data-name="Layer 4"><rect class="cls-1" width="1080" height="1080" rx="540"/></g><g id="Layer_1" data-name="Layer 1"><path class="cls-2" d="M278.68,825.38h0a416,416,0,0,1-118.89-92.16q-7.11-14-13.15-28.67A415.9,415.9,0,0,0,272.84,800Q275.21,812.83,278.68,825.38Zm591.66-376a414.79,414.79,0,0,0-5.08-80.49q-.42-2.69-.9-5.33c-.23-1.4-.49-2.8-.76-4.18a242.63,242.63,0,0,0,21.18-26.36A417.3,417.3,0,0,0,826,248.35c-.27-.32-.55-.62-.83-.92a4.4,4.4,0,0,0-.35-.39,245.18,245.18,0,0,0-3.14,89.77,239,239,0,0,0,32.19,21.32h0c.41,3.39.76,6.75,1.06,10.16.28,3.15.53,6.31.73,9.49A414,414,0,0,1,856,429c-.11,2-.23,4-.37,6-.74,10.68-1.9,21.24-3.41,31.66q-1.58,10.83-3.7,21.44v0c-.12.63-.24,1.27-.39,1.89h0c-1.5,7.49-3.25,14.87-5.17,22.2q-3.63,13.82-8.15,27.21-5.84,17.31-13.11,33.87h0A412.68,412.68,0,0,1,794,625.76v0a412.88,412.88,0,0,1-27.92,39.47,0,0,0,0,1,0,0c-3.58,4.53-7.3,9-11.09,13.32A417.2,417.2,0,0,1,609.64,786.22a411.65,411.65,0,0,1-88.81,28,418.25,418.25,0,0,1-200.69-10.17c-3.07-.91-6.14-1.88-9.18-2.89q2.58,13.69,6.38,27,7.1,2.49,14.3,4.71a415.55,415.55,0,0,0,426.66-113c4.76-5.07,9.36-10.22,13.84-15.52a0,0,0,0,0,0,0q12.21-14.38,23.1-29.9a413.91,413.91,0,0,0,40.83-72.66v0a412.64,412.64,0,0,0,15.67-42.08q4-12.93,7.23-26.26a415.92,415.92,0,0,0,8.28-45.49q.91-7,1.54-14.06c.2-2.21.4-4.42.56-6.64.08-.9.14-1.82.2-2.73q.52-7.53.77-15Z"/><path class="cls-3" d="M309.09,896.21A417.81,417.81,0,0,1,159.77,731.9q-7.11-14-13.15-28.67a415.87,415.87,0,0,0,126.22,95.39q2.37,12.9,5.84,25.43A303,303,0,0,0,309.09,896.21ZM931.53,503.69A412.31,412.31,0,0,0,905.5,378q-7.23-19.23-16.31-37.56a238.22,238.22,0,0,1-20.63,23.88c-1.08,1.12-2.19,2.21-3.3,3.31a414.89,414.89,0,0,1,5.08,80.5h0q-.24,7.51-.77,15c-.06.9-.12,1.82-.2,2.73-.16,2.21-.36,4.43-.56,6.64q-.63,7.07-1.54,14.05A415.92,415.92,0,0,1,859,532.06q-3.21,13.34-7.23,26.27a413.53,413.53,0,0,1-15.67,42.08h0a414,414,0,0,1-40.83,72.67q-10.86,15.49-23.1,29.9h0q-6.72,7.95-13.84,15.52a416.43,416.43,0,0,1-426.66,113q-7.2-2.22-14.3-4.71A302.83,302.83,0,0,0,353.52,907a414.68,414.68,0,0,0,131.25,31.86l5.37.37a413.59,413.59,0,0,0,219.12-46.63A418,418,0,0,0,855.65,764.51q2-2.82,4-5.7A413.7,413.7,0,0,0,929.56,569.4l2.27-32.7Q932.33,520.05,931.53,503.69Z"/><path class="cls-4" d="M279.29,825.38h0a415.88,415.88,0,0,1-118.89-92.16q-7.12-14-13.16-28.67A416,416,0,0,0,273.45,800Q275.82,812.83,279.29,825.38ZM871,449.41a415.58,415.58,0,0,0-5.07-80.49q-.43-2.69-.9-5.33c-.24-1.4-.5-2.8-.76-4.18a243.75,243.75,0,0,0,21.17-26.36,417.25,417.25,0,0,0-58.73-84.7l-.83-.92-.35-.39a244.58,244.58,0,0,0-3.14,89.77,238.89,238.89,0,0,0,32.18,21.32h0c.41,3.39.75,6.75,1.05,10.16q.42,4.72.74,9.49a414,414,0,0,1,.3,51.2c-.11,2-.23,4-.37,6q-1.11,16-3.4,31.66-1.58,10.83-3.7,21.44v0c-.12.63-.25,1.27-.4,1.89h0c-1.51,7.49-3.26,14.87-5.18,22.2q-3.62,13.82-8.14,27.21-5.83,17.31-13.11,33.87h0a414,414,0,0,1-27.72,52.5v0a411.1,411.1,0,0,1-27.92,39.47,0,0,0,0,1,0,0c-3.57,4.53-7.3,9-11.08,13.32A417.38,417.38,0,0,1,610.26,786.22a414.57,414.57,0,0,1-197.55,34.71,416.17,416.17,0,0,1-92-16.85c-3.07-.91-6.14-1.88-9.17-2.89q2.58,13.69,6.37,27,7.1,2.49,14.31,4.71a415.55,415.55,0,0,0,426.66-113c4.75-5.07,9.36-10.22,13.84-15.52,0,0,0,0,0,0q12.22-14.38,23.1-29.9a413.91,413.91,0,0,0,40.83-72.66v0a410.29,410.29,0,0,0,15.67-42.08q4-12.93,7.23-26.26a413.56,413.56,0,0,0,8.29-45.49q.9-7,1.54-14.06c.2-2.21.4-4.42.55-6.64.08-.9.15-1.82.21-2.73q.52-7.53.76-15Z"/><path class="cls-5" d="M937.24,491.25c11.31,3.67,18.58,9.36,19.48,16.47,2,15.9-28.57,32.85-68.31,37.87s-73.57-3.8-75.57-19.69c-1.19-9.37,8.95-19.11,25.61-26.55"/><path class="cls-6" d="M931.7,440.66c9.9,2.8,16.37,7.48,17.38,13.6,2.25,13.67-23.62,29.32-57.79,35s-63.71-.88-66-14.55c-1.33-8.05,7.11-16.8,21.27-23.78"/><path class="cls-6" d="M918.79,396.38c8.36,2,13.91,5.76,14.94,10.84,2.29,11.36-18.86,25.21-47.25,30.95s-53.26,1.19-55.56-10.16c-1.35-6.7,5.44-14.26,17.06-20.52"/><path class="cls-7" d="M803.14,449.54a286.36,286.36,0,0,0-38.81-4.16,228.47,228.47,0,0,0-37.56,1.86A231.19,231.19,0,0,0,690.55,455c-2.95.88-5.89,1.81-8.81,2.83s-5.76,2.06-8.84,3.19c-6,2.25-11.94,4.52-17.7,7a187.82,187.82,0,0,0-32.5,17.29,157.14,157.14,0,0,0-14.52,11.15,168.39,168.39,0,0,0-13.27,12.93c-4.17,4.62-8.21,9.45-12,14.52s-7.41,10.35-11,15.74c-6.94,10.86-13.27,22.31-19.61,34A199.34,199.34,0,0,1,562.7,535,192.42,192.42,0,0,1,571,516.45a168.22,168.22,0,0,1,10.62-17.63,143.64,143.64,0,0,1,28.52-30.51,168.87,168.87,0,0,1,35.74-21.48c6.25-2.84,12.54-5.38,18.78-7.73,3.06-1.16,6.38-2.37,9.67-3.44,1.64-.56,3.31-1.06,5-1.55s3.34-.95,5-1.4a166.64,166.64,0,0,1,41.17-5.48,151.12,151.12,0,0,1,40.86,5.4A120.65,120.65,0,0,1,803.14,449.54Z"/><path class="cls-8" d="M370.47,674.71a77.49,77.49,0,0,1-12.33-31.44,84.56,84.56,0,0,1,1.56-34.51,86.71,86.71,0,0,1,27.72-44.19,82.88,82.88,0,0,1,14.76-9.92,150.83,150.83,0,0,1,15.81-7c5.27-2,10.46-3.88,15.49-5.88,2.51-1,5-2,7.38-3.17l1.79-.85,1.75-.92c1.16-.63,2.36-1.17,3.49-1.87l3.41-2c1.12-.7,2.2-1.48,3.31-2.2.55-.37,1.12-.72,1.65-1.11l1.6-1.19c1.05-.81,2.17-1.55,3.17-2.43a117.35,117.35,0,0,0,36.89-52.9c-2.91,22.23-14.29,43.63-31.25,59.41a99.49,99.49,0,0,1-13.77,10.7c-1.21.83-2.51,1.51-3.75,2.27l-1.9,1.11-1.94,1c-2.58,1.34-5.2,2.57-7.81,3.72-5.23,2.32-10.47,4.29-15.55,6.37a146.11,146.11,0,0,0-14.66,6.6,78,78,0,0,0-24,19.53,85.4,85.4,0,0,0-15.32,27.33,88.24,88.24,0,0,0-4.47,31.54A91.87,91.87,0,0,0,370.47,674.71Z"/><path class="cls-9" d="M383.13,689.53A78.59,78.59,0,0,0,422.73,709l2.62.39a22.89,22.89,0,0,0,2.62.34c.88,0,1.75.15,2.62.23a23,23,0,0,0,2.62.17l2.62,0a22.73,22.73,0,0,0,2.61,0L441,710a22.39,22.39,0,0,0,2.59-.18,74.17,74.17,0,0,0,19.94-4.58c12.89-4.93,24.7-13.19,35.05-23.54a147.36,147.36,0,0,0,14.55-17c1.1-1.55,2.24-3.09,3.33-4.67l3.23-4.84c1-1.66,2.08-3.31,3.13-5s2-3.43,3.11-5.15c-.07,2-.24,4-.42,6.07s-.6,4-1,6-.93,4-1.41,6S522,667,521.35,669A93.63,93.63,0,0,1,510,691.14l-.89,1.3-1,1.25-1.93,2.52-1,1.24-1.05,1.19L502.07,701c-1.38,1.63-3,3.06-4.5,4.55s-3.21,2.83-4.84,4.23a82.2,82.2,0,0,1-22.47,13,73.58,73.58,0,0,1-25.89,4.81,30.11,30.11,0,0,1-3.29-.07l-3.27-.19a27.56,27.56,0,0,1-3.26-.37l-3.23-.48c-1.08-.14-2.13-.41-3.2-.65s-2.11-.47-3.16-.75-2.08-.61-3.12-.94l-3.07-1a65.81,65.81,0,0,1-21.84-13.21A51.3,51.3,0,0,1,383.13,689.53Z"/><path class="cls-10" d="M728.74,609.7c-23,26.92-57.71,37.48-85.7,25.84C663.43,603.76,701.89,592,728.74,609.7Z"/><path class="cls-10" d="M728.74,609.7c-23,26.92-57.71,37.48-85.7,25.84C663.43,603.76,701.89,592,728.74,609.7Z"/><g id="Fire"><path class="cls-11" d="M466.1,315.4c0,1.53-.1,3.08-.15,4.62,0,.36,0,.71-.05,1v.09A223.45,223.45,0,0,1,431.79,428.6a219.81,219.81,0,0,1-21,28,209.72,209.72,0,0,1-57.74,46l-.08,0c-2,.94-3.9,2-5.85,3a.36.36,0,0,0-.22.14,135.14,135.14,0,0,0-36.8,29.5c-31.73,35.93-42.38,84.33-32.4,128.09a137.55,137.55,0,0,0,27.83,57.1c-1.44-1.32-2.88-2.66-4.3-4-51.27-49.74-69.83-122.9-54.8-190.35a206.72,206.72,0,0,1,32.41-73.75c.11-.17.21-.3.31-.46a.82.82,0,0,1-.22-.05,204.13,204.13,0,0,1,14.4-18.31,196.93,196.93,0,0,1,49.84-40.74c.41-.21.78-.48,1.2-.68a.06.06,0,0,1,.06,0c1.43-.27,2.87-.59,4.28-.9,40.16-9.09,78.33-30.88,108.55-65.11Q461.91,320.84,466.1,315.4Z"/><path class="cls-12" d="M315.68,731.48c.56.55,1.1,1.07,1.64,1.57a165.33,165.33,0,0,1-50.94-33.88c-47.57-46.15-63.76-114.74-47.74-176.9a185.36,185.36,0,0,1,39.48-75.38c.34-.43.7-.83,1.06-1.24a173.48,173.48,0,0,1,74.77-50,173.85,173.85,0,0,0-69.59,48.19c-.36.41-.72.82-1.07,1.24a185.61,185.61,0,0,0-39.48,75.38c-16,62.16.18,130.76,47.74,176.9A166.43,166.43,0,0,0,309.44,725Q312.43,728.32,315.68,731.48Z"/><path class="cls-13" d="M293.36,433.53A204.13,204.13,0,0,0,279,451.84a.82.82,0,0,0,.22.05c-.1.16-.2.29-.31.46a206.72,206.72,0,0,0-32.41,73.75c-15,67.45,3.53,140.61,54.8,190.35,1.42,1.38,2.86,2.72,4.3,4,1.25,1.53,2.55,3,3.88,4.51a166.28,166.28,0,0,1-37.88-27.68C224,651.18,207.8,582.59,223.81,520.43A185.58,185.58,0,0,1,263.29,445c.35-.43.71-.82,1.07-1.23A173.81,173.81,0,0,1,334,395.61h0q5.17-2,10.43-3.5c-.42.2-.79.47-1.2.68A196.93,196.93,0,0,0,293.36,433.53Z"/></g><path class="cls-6" d="M903.45,357.48c6.8,1,11.5,3.56,12.69,7.53,2.67,8.88-13.15,21.48-35.33,28.15s-42.34,4.89-45-4c-1.57-5.23,3.28-11.76,12.07-17.6"/><text class="cls-14" transform="matrix(-0.34, -0.94, 0.94, -0.34, 196.77, 671.12)">I</text><text class="cls-14" transform="translate(190.34 655.3) rotate(-104.82)">N</text><text class="cls-14" transform="matrix(-0.14, -0.99, 0.99, -0.14, 178.78, 611.95)">T</text><text class="cls-14" transform="translate(172.84 569.82) rotate(-91.55)">E</text><text class="cls-14" transform="translate(171.76 531.35) rotate(-85.64)">L</text><text class="cls-14" transform="translate(174.33 496.23) rotate(-79.97)">L</text><text class="cls-14" transform="translate(180.24 461.6) rotate(-74.07)">E</text><text class="cls-14" transform="matrix(0.38, -0.92, 0.92, 0.38, 190.45, 424.66)">K</text><text class="cls-14" transform="translate(207.32 383.71) rotate(-60.6)">T</text><text class="cls-14" transform="translate(227.94 346.64) rotate(-53.71)">U</text><text class="cls-14" transform="matrix(0.68, -0.73, 0.73, 0.68, 254.52, 310.51)">E</text><text class="cls-14" transform="matrix(0.75, -0.66, 0.66, 0.75, 280.69, 282.28)">L</text><text class="cls-14" transform="translate(307.08 258.98) rotate(-35.61)">L</text><text class="cls-14" transform="translate(335.52 238.36) rotate(-29.69)">E</text><text class="cls-14" transform="matrix(0.9, -0.43, 0.43, 0.9, 369.63, 219.4)"> </text><text class="cls-14" transform="translate(379.43 213.98) rotate(-21.4)">S</text><text class="cls-14" transform="translate(417.54 198.66) rotate(-14.35)">C</text><text class="cls-14" transform="matrix(0.99, -0.12, 0.12, 0.99, 463.6, 186.72)">H</text><text class="cls-14" transform="translate(509.78 180.94) rotate(0.29)">U</text><text class="cls-14" transform="translate(554.65 181.3) rotate(6.71)">L</text><text class="cls-14" transform="matrix(0.98, 0.22, -0.22, 0.98, 589.56, 185.2)">E</text><text class="cls-14" transform="translate(627.54 194.14) rotate(16.65)"> </text><text class="cls-14" transform="matrix(0.93, 0.35, -0.35, 0.93, 638.44, 196.78)">2</text><text class="cls-14" transform="matrix(0.89, 0.46, -0.46, 0.89, 675.83, 210.63)">0</text><text class="cls-14" transform="translate(716.03 231.61) rotate(34.29)">2</text><text class="cls-14" transform="translate(749.13 253.94) rotate(40.76)">3</text><text class="cls-15" transform="translate(199.97 670.8) rotate(-109.77)">I</text><text class="cls-15" transform="matrix(-0.26, -0.97, 0.97, -0.26, 193.55, 654.98)">N</text><text class="cls-15" transform="matrix(-0.14, -0.99, 0.99, -0.14, 181.98, 611.63)">T</text><text class="cls-15" transform="translate(176.04 569.49) rotate(-91.55)">E</text><text class="cls-15" transform="translate(174.96 531.03) rotate(-85.64)">L</text><text class="cls-15" transform="translate(177.53 495.91) rotate(-79.97)">L</text><text class="cls-15" transform="translate(183.44 461.27) rotate(-74.07)">E</text><text class="cls-15" transform="translate(193.65 424.34) rotate(-67.48)">K</text><text class="cls-15" transform="translate(210.52 383.38) rotate(-60.6)">T</text><text class="cls-15" transform="translate(231.14 346.31) rotate(-53.71)">U</text><text class="cls-15" transform="matrix(0.68, -0.73, 0.73, 0.68, 257.72, 310.19)">E</text><text class="cls-15" transform="translate(283.89 281.96) rotate(-41.25)">L</text><text class="cls-15" transform="translate(310.28 258.66) rotate(-35.61)">L</text><text class="cls-15" transform="matrix(0.87, -0.5, 0.5, 0.87, 338.72, 238.03)">E</text><text class="cls-15" transform="translate(372.83 219.08) rotate(-25.65)"> </text><text class="cls-15" transform="translate(382.63 213.66) rotate(-21.39)">S</text><text class="cls-15" transform="translate(420.74 198.34) rotate(-14.35)">C</text><text class="cls-15" transform="translate(466.82 186.39) rotate(-6.98)">H</text><text class="cls-15" transform="translate(512.98 180.62) rotate(0.29)">U</text><text class="cls-15" transform="translate(557.85 180.98) rotate(6.71)">L</text><text class="cls-15" transform="translate(592.77 184.88) rotate(12.63)">E</text><text class="cls-15" transform="translate(630.74 193.82) rotate(16.65)"> </text><text class="cls-15" transform="matrix(0.93, 0.35, -0.35, 0.93, 641.64, 196.45)">2</text><text class="cls-15" transform="matrix(0.89, 0.46, -0.46, 0.89, 679.03, 210.31)">0</text><text class="cls-15" transform="translate(719.23 231.29) rotate(34.29)">2</text><text class="cls-15" transform="translate(752.33 253.62) rotate(40.76)">3</text></g></svg>