<svg xmlns="http://www.w3.org/2000/svg" xmlns:xlink="http://www.w3.org/1999/xlink" viewBox="0 0 1080 1080"><defs><style>.cls-1{fill:url(#linear-gradient);}.cls-2{fill:url(#linear-gradient-2);}.cls-3{fill:url(#linear-gradient-3);}.cls-4{fill:url(#linear-gradient-4);}.cls-5,.cls-6{fill:none;stroke:#fff27d;stroke-miterlimit:10;}.cls-5{stroke-width:10.95px;}.cls-6{stroke-width:9.39px;}.cls-7{fill:#fbcf61;}.cls-8{fill:#fe995a;}.cls-9{fill:#fcb45d;}.cls-10{fill:#fdf389;}.cls-11{fill:url(#linear-gradient-5);}.cls-12{fill:url(#linear-gradient-6);}.cls-13{fill:url(#linear-gradient-7);}.cls-14{fill:#03437e;}.cls-15{fill:#0192e7;}</style><linearGradient id="linear-gradient" x1="540" y1="1080" x2="540" gradientUnits="userSpaceOnUse"><stop offset="0" stop-color="#000b59"/><stop offset="1" stop-color="#000928"/></linearGradient><linearGradient id="linear-gradient-2" x1="303.37" y1="880.1" x2="883.86" y2="299.6" gradientTransform="translate(34.5 -31.99) rotate(3.97)" gradientUnits="userSpaceOnUse"><stop offset="0" stop-color="#fdf8af"/><stop offset="1" stop-color="#fdf386"/></linearGradient><linearGradient id="linear-gradient-3" x1="437.38" y1="451.07" x2="807.48" y2="821.17" gradientTransform="translate(34.5 -31.99) rotate(3.97)" gradientUnits="userSpaceOnUse"><stop offset="0" stop-color="#fadb62"/><stop offset="0.48" stop-color="#fad962"/><stop offset="0.66" stop-color="#fbd261"/><stop offset="0.78" stop-color="#fbc75f"/><stop offset="0.88" stop-color="#fdb65d"/><stop offset="0.97" stop-color="#fea05a"/><stop offset="1" stop-color="#ff9559"/></linearGradient><linearGradient id="linear-gradient-4" x1="303.98" y1="880.06" x2="884.48" y2="299.56" xlink:href="#linear-gradient-2"/><linearGradient id="linear-gradient-5" x1="251.95" y1="494.13" x2="431.17" y2="526.01" gradientUnits="userSpaceOnUse"><stop offset="0" stop-color="#00a3ff"/><stop offset="0.26" stop-color="#018ade"/><stop offset="0.84" stop-color="#024b89"/><stop offset="1" stop-color="#033971"/></linearGradient><linearGradient id="linear-gradient-6" x1="214.13" y1="544.49" x2="346.67" y2="568.07" xlink:href="#linear-gradient-5"/><linearGradient id="linear-gradient-7" x1="219.86" y1="539.51" x2="338.68" y2="560.64" xlink:href="#linear-gradient-5"/></defs><g id="Layer_4" data-name="Layer 4"><rect class="cls-1" width="1080" height="1080" rx="540"/></g><g id="Layer_1" data-name="Layer 1"><path class="cls-2" d="M278.68,825.38h0a416,416,0,0,1-118.89-92.16q-7.11-14-13.15-28.67A415.9,415.9,0,0,0,272.84,800Q275.21,812.83,278.68,825.38Zm591.66-376a414.79,414.79,0,0,0-5.08-80.49q-.42-2.69-.9-5.33c-.23-1.4-.49-2.8-.76-4.18a242.63,242.63,0,0,0,21.18-26.36A417.3,417.3,0,0,0,826,248.35c-.27-.32-.55-.62-.83-.92a4.4,4.4,0,0,0-.35-.39,245.18,245.18,0,0,0-3.14,89.77,239,239,0,0,0,32.19,21.32h0c.41,3.39.76,6.75,1.06,10.16.28,3.15.53,6.31.73,9.49A414,414,0,0,1,856,429c-.11,2-.23,4-.37,6-.74,10.68-1.9,21.24-3.41,31.66q-1.58,10.83-3.7,21.44v0c-.12.63-.24,1.27-.39,1.89h0c-1.5,7.49-3.25,14.87-5.17,22.2q-3.63,13.82-8.15,27.21-5.84,17.31-13.11,33.87h0A412.68,412.68,0,0,1,794,625.76v0a412.88,412.88,0,0,1-27.92,39.47,0,0,0,0,1,0,0c-3.58,4.53-7.3,9-11.09,13.32A417.2,417.2,0,0,1,609.64,786.22a411.65,411.65,0,0,1-88.81,28,418.25,418.25,0,0,1-200.69-10.17c-3.07-.91-6.14-1.88-9.18-2.89q2.58,13.69,6.38,27,7.1,2.49,14.3,4.71a415.55,415.55,0,0,0,426.66-113c4.76-5.07,9.36-10.22,13.84-15.52a0,0,0,0,0,0,0q12.21-14.38,23.1-29.9a413.91,413.91,0,0,0,40.83-72.66v0a412.64,412.64,0,0,0,15.67-42.08q4-12.93,7.23-26.26a415.92,415.92,0,0,0,8.28-45.49q.91-7,1.54-14.06c.2-2.21.4-4.42.56-6.64.08-.9.14-1.82.2-2.73q.52-7.53.77-15Z"/><path class="cls-3" d="M309.09,896.21A417.81,417.81,0,0,1,159.77,731.9q-7.11-14-13.15-28.67a415.87,415.87,0,0,0,126.22,95.39q2.37,12.9,5.84,25.43A303,303,0,0,0,309.09,896.21ZM931.53,503.69A412.31,412.31,0,0,0,905.5,378q-7.23-19.23-16.31-37.56a238.22,238.22,0,0,1-20.63,23.88c-1.08,1.12-2.19,2.21-3.3,3.31a414.89,414.89,0,0,1,5.08,80.5h0q-.24,7.51-.77,15c-.06.9-.12,1.82-.2,2.73-.16,2.21-.36,4.43-.56,6.64q-.63,7.07-1.54,14.05A415.92,415.92,0,0,1,859,532.06q-3.21,13.34-7.23,26.27a413.53,413.53,0,0,1-15.67,42.08h0a414,414,0,0,1-40.83,72.67q-10.86,15.49-23.1,29.9h0q-6.72,7.95-13.84,15.52a416.43,416.43,0,0,1-426.66,113q-7.2-2.22-14.3-4.71A302.83,302.83,0,0,0,353.52,907a414.68,414.68,0,0,0,131.25,31.86l5.37.37a413.59,413.59,0,0,0,219.12-46.63A418,418,0,0,0,855.65,764.51q2-2.82,4-5.7A413.7,413.7,0,0,0,929.56,569.4l2.27-32.7Q932.33,520.05,931.53,503.69Z"/><path class="cls-4" d="M279.29,825.38h0a415.88,415.88,0,0,1-118.89-92.16q-7.12-14-13.16-28.67A416,416,0,0,0,273.45,800Q275.82,812.83,279.29,825.38ZM871,449.41a415.58,415.58,0,0,0-5.07-80.49q-.43-2.69-.9-5.33c-.24-1.4-.5-2.8-.76-4.18a243.75,243.75,0,0,0,21.17-26.36,417.25,417.25,0,0,0-58.73-84.7l-.83-.92-.35-.39a244.58,244.58,0,0,0-3.14,89.77,238.89,238.89,0,0,0,32.18,21.32h0c.41,3.39.75,6.75,1.05,10.16q.42,4.72.74,9.49a414,414,0,0,1,.3,51.2c-.11,2-.23,4-.37,6q-1.11,16-3.4,31.66-1.58,10.83-3.7,21.44v0c-.12.63-.25,1.27-.4,1.89h0c-1.51,7.49-3.26,14.87-5.18,22.2q-3.62,13.82-8.14,27.21-5.83,17.31-13.11,33.87h0a414,414,0,0,1-27.72,52.5v0a411.1,411.1,0,0,1-27.92,39.47,0,0,0,0,1,0,0c-3.57,4.53-7.3,9-11.08,13.32A417.38,417.38,0,0,1,610.26,786.22a414.57,414.57,0,0,1-197.55,34.71,416.17,416.17,0,0,1-92-16.85c-3.07-.91-6.14-1.88-9.17-2.89q2.58,13.69,6.37,27,7.1,2.49,14.31,4.71a415.55,415.55,0,0,0,426.66-113c4.75-5.07,9.36-10.22,13.84-15.52,0,0,0,0,0,0q12.22-14.38,23.1-29.9a413.91,413.91,0,0,0,40.83-72.66v0a410.29,410.29,0,0,0,15.67-42.08q4-12.93,7.23-26.26a413.56,413.56,0,0,0,8.29-45.49q.9-7,1.54-14.06c.2-2.21.4-4.42.55-6.64.08-.9.15-1.82.21-2.73q.52-7.53.76-15Z"/><path class="cls-5" d="M937.24,491.25c11.31,3.67,18.58,9.36,19.48,16.47,2,15.9-28.57,32.85-68.31,37.87s-73.57-3.8-75.57-19.69c-1.19-9.37,8.95-19.11,25.61-26.55"/><path class="cls-6" d="M931.7,440.66c9.9,2.8,16.37,7.48,17.38,13.6,2.25,13.67-23.62,29.32-57.79,35s-63.71-.88-66-14.55c-1.33-8.05,7.11-16.8,21.27-23.78"/><path class="cls-6" d="M918.79,396.38c8.36,2,13.91,5.76,14.94,10.84,2.29,11.36-18.86,25.21-47.25,30.95s-53.26,1.19-55.56-10.16c-1.35-6.7,5.44-14.26,17.06-20.52"/><path class="cls-7" d="M803.14,449.54a286.36,286.36,0,0,0-38.81-4.16,228.47,228.47,0,0,0-37.56,1.86A231.19,231.19,0,0,0,690.55,455c-2.95.88-5.89,1.81-8.81,2.83s-5.76,2.06-8.84,3.19c-6,2.25-11.94,4.52-17.7,7a187.82,187.82,0,0,0-32.5,17.29,157.14,157.14,0,0,0-14.52,11.15,168.39,168.39,0,0,0-13.27,12.93c-4.17,4.62-8.21,9.45-12,14.52s-7.41,10.35-11,15.74c-6.94,10.86-13.27,22.31-19.61,34A199.34,199.34,0,0,1,562.7,535,192.42,192.42,0,0,1,571,516.45a168.22,168.22,0,0,1,10.62-17.63,143.64,143.64,0,0,1,28.52-30.51,168.87,168.87,0,0,1,35.74-21.48c6.25-2.84,12.54-5.38,18.78-7.73,3.06-1.16,6.38-2.37,9.67-3.44,1.64-.56,3.31-1.06,5-1.55s3.34-.95,5-1.4a166.64,166.64,0,0,1,41.17-5.48,151.12,151.12,0,0,1,40.86,5.4A120.65,120.65,0,0,1,803.14,449.54Z"/><path class="cls-8" d="M370.47,674.71a77.49,77.49,0,0,1-12.33-31.44,84.56,84.56,0,0,1,1.56-34.51,86.71,86.71,0,0,1,27.72-44.19,82.88,82.88,0,0,1,14.76-9.92,150.83,150.83,0,0,1,15.81-7c5.27-2,10.46-3.88,15.49-5.88,2.51-1,5-2,7.38-3.17l1.79-.85,1.75-.92c1.16-.63,2.36-1.17,3.49-1.87l3.41-2c1.12-.7,2.2-1.48,3.31-2.2.55-.37,1.12-.72,1.65-1.11l1.6-1.19c1.05-.81,2.17-1.55,3.17-2.43a117.35,117.35,0,0,0,36.89-52.9c-2.91,22.23-14.29,43.63-31.25,59.41a99.49,99.49,0,0,1-13.77,10.7c-1.21.83-2.51,1.51-3.75,2.27l-1.9,1.11-1.94,1c-2.58,1.34-5.2,2.57-7.81,3.72-5.23,2.32-10.47,4.29-15.55,6.37a146.11,146.11,0,0,0-14.66,6.6,78,78,0,0,0-24,19.53,85.4,85.4,0,0,0-15.32,27.33,88.24,88.24,0,0,0-4.47,31.54A91.87,91.87,0,0,0,370.47,674.71Z"/><path class="cls-9" d="M383.13,689.53A78.59,78.59,0,0,0,422.73,709l2.62.39a22.89,22.89,0,0,0,2.62.34c.88,0,1.75.15,2.62.23a23,23,0,0,0,2.62.17l2.62,0a22.73,22.73,0,0,0,2.61,0L441,710a22.39,22.39,0,0,0,2.59-.18,74.17,74.17,0,0,0,19.94-4.58c12.89-4.93,24.7-13.19,35.05-23.54a147.36,147.36,0,0,0,14.55-17c1.1-1.55,2.24-3.09,3.33-4.67l3.23-4.84c1-1.66,2.08-3.31,3.13-5s2-3.43,3.11-5.15c-.07,2-.24,4-.42,6.07s-.6,4-1,6-.93,4-1.41,6S522,667,521.35,669A93.63,93.63,0,0,1,510,691.14l-.89,1.3-1,1.25-1.93,2.52-1,1.24-1.05,1.19L502.07,701c-1.38,1.63-3,3.06-4.5,4.55s-3.21,2.83-4.84,4.23a82.2,82.2,0,0,1-22.47,13,73.58,73.58,0,0,1-25.89,4.81,30.11,30.11,0,0,1-3.29-.07l-3.27-.19a27.56,27.56,0,0,1-3.26-.37l-3.23-.48c-1.08-.14-2.13-.41-3.2-.65s-2.11-.47-3.16-.75-2.08-.61-3.12-.94l-3.07-1a65.81,65.81,0,0,1-21.84-13.21A51.3,51.3,0,0,1,383.13,689.53Z"/><path class="cls-10" d="M728.74,609.7c-23,26.92-57.71,37.48-85.7,25.84C663.43,603.76,701.89,592,728.74,609.7Z"/><path class="cls-10" d="M728.74,609.7c-23,26.92-57.71,37.48-85.7,25.84C663.43,603.76,701.89,592,728.74,609.7Z"/><g id="Fire"><path class="cls-11" d="M466.1,315.4c0,1.53-.1,3.08-.15,4.62,0,.36,0,.71-.05,1v.09A223.45,223.45,0,0,1,431.79,428.6a219.81,219.81,0,0,1-21,28,209.72,209.72,0,0,1-57.74,46l-.08,0c-2,.94-3.9,2-5.85,3a.36.36,0,0,0-.22.14,135.14,135.14,0,0,0-36.8,29.5c-31.73,35.93-42.38,84.33-32.4,128.09a137.55,137.55,0,0,0,27.83,57.1c-1.44-1.32-2.88-2.66-4.3-4-51.27-49.74-69.83-122.9-54.8-190.35a206.72,206.72,0,0,1,32.41-73.75c.11-.17.21-.3.31-.46a.82.82,0,0,1-.22-.05,204.13,204.13,0,0,1,14.4-18.31,196.93,196.93,0,0,1,49.84-40.74c.41-.21.78-.48,1.2-.68a.06.06,0,0,1,.06,0c1.43-.27,2.87-.59,4.28-.9,40.16-9.09,78.33-30.88,108.55-65.11Q461.91,320.84,466.1,315.4Z"/><path class="cls-12" d="M315.68,731.48c.56.55,1.1,1.07,1.64,1.57a165.33,165.33,0,0,1-50.94-33.88c-47.57-46.15-63.76-114.74-47.74-176.9a185.36,185.36,0,0,1,39.48-75.38c.34-.43.7-.83,1.06-1.24a173.48,173.48,0,0,1,74.77-50,173.85,173.85,0,0,0-69.59,48.19c-.36.41-.72.82-1.07,1.24a185.61,185.61,0,0,0-39.48,75.38c-16,62.16.18,130.76,47.74,176.9A166.43,166.43,0,0,0,309.44,725Q312.43,728.32,315.68,731.48Z"/><path class="cls-13" d="M293.36,433.53A204.13,204.13,0,0,0,279,451.84a.82.82,0,0,0,.22.05c-.1.16-.2.29-.31.46a206.72,206.72,0,0,0-32.41,73.75c-15,67.45,3.53,140.61,54.8,190.35,1.42,1.38,2.86,2.72,4.3,4,1.25,1.53,2.55,3,3.88,4.51a166.28,166.28,0,0,1-37.88-27.68C224,651.18,207.8,582.59,223.81,520.43A185.58,185.58,0,0,1,263.29,445c.35-.43.71-.82,1.07-1.23A173.81,173.81,0,0,1,334,395.61h0q5.17-2,10.43-3.5c-.42.2-.79.47-1.2.68A196.93,196.93,0,0,0,293.36,433.53Z"/></g><path class="cls-6" d="M903.45,357.48c6.8,1,11.5,3.56,12.69,7.53,2.67,8.88-13.15,21.48-35.33,28.15s-42.34,4.89-45-4c-1.57-5.23,3.28-11.76,12.07-17.6"/><path class="cls-14" d="M146.38,672.18l45-16.17,4.39,12.21-45,16.16Z"/><path class="cls-14" d="M132.79,624.58,179,612.36l2.77,10.46L161.9,645.94l.07.27,24.27-6.42,3.31,12.54-46.19,12.22-2.81-10.65,19.83-22.81-.1-.37-24.17,6.4Z"/><path class="cls-14" d="M141.57,615.38l-10.35,1.46-5.77-41.13,10.35-1.45,2,14.23,37-5.19L176.54,596l-37,5.19Z"/><path class="cls-14" d="M172.76,566.74,125,568l-.93-34.42,10.45-.28.58,21.45,8.21-.22-.53-19.68,10.45-.29.53,19.69,8.21-.23-.58-21.36,10.45-.28Z"/><path class="cls-14" d="M172,528.28l-47.64-3.64,1-12.93,37.22,2.84L164,495.29l10.42.79Z"/><path class="cls-14" d="M174.86,493.2l-47.05-8.32,2.26-12.78,36.76,6.5,3.36-19,10.29,1.82Z"/><path class="cls-14" d="M181.08,458.63l-45.94-13.11,9.45-33.11,10,2.87-5.89,20.64,7.89,2.25,5.41-18.93,10,2.86L166.69,441l7.9,2.25,5.87-20.55,10,2.87Z"/><path class="cls-14" d="M191.63,421.82l-44.14-18.3,5-12,17.84,7.4.25-.6-12.34-20.68,5.79-14,13.47,23.06,30.81-5.11L202.35,396,181.69,399l3.53,6.11,11.37,4.71Z"/><path class="cls-14" d="M175.67,363.84l-9.11-5.13,20.38-36.18,9.11,5.13L189,340.18l32.52,18.32-6.28,11.14-32.52-18.32Z"/><path class="cls-14" d="M208,293.08l7.68-10.45,24.67,18.12a16.81,16.81,0,0,1,6.06,7.68,17,17,0,0,1,.66,9.47,28.12,28.12,0,0,1-12.79,17.41A16.29,16.29,0,0,1,215.92,334l-24.67-18.12,7.68-10.45,23.77,17.45a7.74,7.74,0,0,0,3.76,1.55,7,7,0,0,0,3.8-.58,7.76,7.76,0,0,0,3.13-2.6,7.84,7.84,0,0,0,1.56-3.78,7,7,0,0,0-.59-3.79,7.82,7.82,0,0,0-2.6-3.13Z"/><path class="cls-14" d="M256.61,308.26l-35-32.52L245,250.51l7.66,7.11-14.61,15.73,6,5.59,13.4-14.43,7.66,7.11-13.41,14.43,6,5.59L272.33,276,280,283.1Z"/><path class="cls-14" d="M283,280.25,251.5,244.32l9.76-8.55,24.61,28.07,14.52-12.74,6.89,7.86Z"/><path class="cls-14" d="M309.58,257.19l-27.82-38.84,10.55-7.56L314,241.14l15.71-11.25,6.08,8.5Z"/><path class="cls-14" d="M338.2,236.83l-23.67-41.5,29.91-17.06,5.18,9.08L331,198l4.07,7.13,17.1-9.75,5.18,9.08-17.1,9.75,4.07,7.14,18.56-10.59,5.18,9.08Z"/><path class="cls-14" d="M394.29,172.88a5.05,5.05,0,0,0-2.94-2.76,7.18,7.18,0,0,0-4.86.5,9.8,9.8,0,0,0-2.88,1.64,4.08,4.08,0,0,0-1.27,1.89,3.17,3.17,0,0,0,.09,2,2.93,2.93,0,0,0,.86,1.33,3.53,3.53,0,0,0,1.53.73,8.47,8.47,0,0,0,2.25.18,20.75,20.75,0,0,0,3-.33l3.95-.65a29.52,29.52,0,0,1,7.13-.41,16.46,16.46,0,0,1,5.48,1.32,12,12,0,0,1,4,2.91,14.93,14.93,0,0,1,2.65,4.38,13.51,13.51,0,0,1,.72,8.28,14.45,14.45,0,0,1-4.39,7.06,28.53,28.53,0,0,1-9.06,5.38,29.32,29.32,0,0,1-10.78,2.24,15,15,0,0,1-8.77-2.66,17.49,17.49,0,0,1-6-8.22l11.47-4.49a7.28,7.28,0,0,0,2.36,3,6.15,6.15,0,0,0,3.4,1.1,10.83,10.83,0,0,0,4.25-.84,10.46,10.46,0,0,0,3.05-1.74,4.73,4.73,0,0,0,1.45-2.1,3.35,3.35,0,0,0-.06-2.21,3,3,0,0,0-1.36-1.53,5.81,5.81,0,0,0-2.64-.57,24.36,24.36,0,0,0-4.39.38l-4.81.78a21.74,21.74,0,0,1-11-.65,11.1,11.1,0,0,1-6.6-6.89,13.14,13.14,0,0,1-.63-8.31,16.12,16.12,0,0,1,4.42-7.46,24.87,24.87,0,0,1,8.65-5.45,23.85,23.85,0,0,1,10-1.84,15.07,15.07,0,0,1,8.06,2.69,14.85,14.85,0,0,1,5.15,6.79Z"/><path class="cls-14" d="M456.34,157.91l-12.75,3.26a9.12,9.12,0,0,0-1.45-2.69,6.92,6.92,0,0,0-4.95-2.64,10,10,0,0,0-3.36.31,9.31,9.31,0,0,0-4.95,2.91,9.67,9.67,0,0,0-2.17,5.25,19.42,19.42,0,0,0,.64,7.18,19.81,19.81,0,0,0,3,6.82,9.18,9.18,0,0,0,4.41,3.44,9.45,9.45,0,0,0,5.59.1,10.24,10.24,0,0,0,3-1.23,7.27,7.27,0,0,0,2.07-1.89,7,7,0,0,0,1.15-2.45,8.4,8.4,0,0,0,.18-2.9l12.77-3.17a17.75,17.75,0,0,1-.12,6.4,19.95,19.95,0,0,1-8,12.41,26.55,26.55,0,0,1-20.65,4,20.34,20.34,0,0,1-10-6,27.5,27.5,0,0,1-6.25-12.24,27.13,27.13,0,0,1-.35-13.8,20.72,20.72,0,0,1,6-10.08,24.14,24.14,0,0,1,10.6-5.61,26.78,26.78,0,0,1,8.38-.87,20.2,20.2,0,0,1,7.35,1.84,18,18,0,0,1,5.92,4.49A21.5,21.5,0,0,1,456.34,157.91Z"/><path class="cls-14" d="M466.65,186.35l-5.81-47.43,12.88-1.58L476,155.87l17-2.09-2.27-18.53,12.88-1.57,5.81,47.42-12.88,1.58-2.27-18.53-17,2.09,2.27,18.53Z"/><path class="cls-14" d="M541.38,133.32l13,.06L554.19,164a16.28,16.28,0,0,1-9.92,15.52,28,28,0,0,1-21.6-.11,16.74,16.74,0,0,1-7.19-6.17,16.91,16.91,0,0,1-2.53-9.45l.15-30.61,13,.07-.15,29.49a8.06,8.06,0,0,0,1,4,7,7,0,0,0,2.71,2.73,8.49,8.49,0,0,0,7.92,0,7.08,7.08,0,0,0,2.72-2.71,7.9,7.9,0,0,0,1-3.94Z"/><path class="cls-14" d="M557.71,181.66l5.58-47.45,12.89,1.51-4.37,37.08L591,175.05l-1.22,10.38Z"/><path class="cls-14" d="M592.57,185.87,603,139.25l33.6,7.52L634.33,157l-21-4.69-1.79,8,19.21,4.31-2.28,10.2-19.21-4.31-1.8,8,20.85,4.67-2.28,10.2Z"/><path class="cls-14" d="M641.4,197.9l3.32-8.72,21.89-7.47a38.46,38.46,0,0,0,3.83-1.5,10.93,10.93,0,0,0,2.78-1.8,6.86,6.86,0,0,0,1.73-2.62,6,6,0,0,0,.38-3.22,5.22,5.22,0,0,0-1.3-2.65,7.36,7.36,0,0,0-5.92-2.24,5,5,0,0,0-2.73,1.24,7.21,7.21,0,0,0-1.91,2.92L652,167.47a16.08,16.08,0,0,1,5.19-7.31,14.79,14.79,0,0,1,8-3,22.48,22.48,0,0,1,9.75,1.6,24.77,24.77,0,0,1,8.65,5.25,14.83,14.83,0,0,1,4.26,7.12,13.28,13.28,0,0,1-.6,8.07,14,14,0,0,1-3,4.71,22.37,22.37,0,0,1-6,4.16,83.61,83.61,0,0,1-10.66,4.34L662,194.35l-.1.26,17.45,6.62-3.68,9.68Z"/><path class="cls-14" d="M696.49,222.88a20.77,20.77,0,0,1-8.58-7.87,19.43,19.43,0,0,1-2.5-11,32.07,32.07,0,0,1,4-13.13,31.68,31.68,0,0,1,8.48-10.68,18.58,18.58,0,0,1,10.32-4.06,23.42,23.42,0,0,1,19.93,10.4,18.84,18.84,0,0,1,2.59,10.81,31.25,31.25,0,0,1-3.93,13,32.44,32.44,0,0,1-8.53,10.81,19.4,19.4,0,0,1-10.44,4.25A20.69,20.69,0,0,1,696.49,222.88Zm4.87-9.35c2,1,4.16.85,6.52-.56s4.69-4.35,7-8.81a27.25,27.25,0,0,0,2.85-7.59,10,10,0,0,0-.25-5.36,5.9,5.9,0,0,0-2.82-3.17q-3-1.54-6.44.49t-6.91,8.55a28.63,28.63,0,0,0-3,7.76,10.23,10.23,0,0,0,.21,5.48A5.82,5.82,0,0,0,701.36,213.53Z"/><path class="cls-14" d="M718.65,233.4l5.26-7.71,23-2.14c1.53-.15,2.89-.34,4.07-.57a10.79,10.79,0,0,0,3.13-1.1,6.85,6.85,0,0,0,2.29-2.14,6.07,6.07,0,0,0,1.13-3,5.32,5.32,0,0,0-.65-2.89,7.39,7.39,0,0,0-5.24-3.56,5.06,5.06,0,0,0-2.94.57,7.12,7.12,0,0,0-2.53,2.39L736,206.27a16,16,0,0,1,6.76-5.89,14.73,14.73,0,0,1,8.43-1,22.33,22.33,0,0,1,9.11,3.84,24.7,24.7,0,0,1,7.18,7.12,14.84,14.84,0,0,1,2.48,7.91,13.27,13.27,0,0,1-2.47,7.72,14.06,14.06,0,0,1-4,3.87,22.31,22.31,0,0,1-6.78,2.65,83.12,83.12,0,0,1-11.37,1.73l-5.81.56-.15.24,15.42,10.51L749,254.06Z"/><path class="cls-14" d="M765.24,268.7a24.66,24.66,0,0,1-6.32-8,16.68,16.68,0,0,1-1.69-8.56,13.15,13.15,0,0,1,3.24-7.62l9.9,8.53a4.11,4.11,0,0,0-1,2.42,5.55,5.55,0,0,0,.62,2.77,8.51,8.51,0,0,0,2.12,2.62,7.43,7.43,0,0,0,2.82,1.59,5.2,5.2,0,0,0,2.79.05A4.44,4.44,0,0,0,780,261a3.85,3.85,0,0,0,1-2.51,5.77,5.77,0,0,0-.75-3,10.1,10.1,0,0,0-2.4-2.9l-3.68-3.17,5.85-6.79,3.68,3.17a8.83,8.83,0,0,0,3,1.76,5.55,5.55,0,0,0,2.89.18,4.12,4.12,0,0,0,2.29-1.42A4.36,4.36,0,0,0,793,244a4.85,4.85,0,0,0-.38-2.55,6.5,6.5,0,0,0-1.79-2.34,7.64,7.64,0,0,0-2.8-1.59,5.25,5.25,0,0,0-2.8-.09,4.43,4.43,0,0,0-2.29,1.41l-9.4-8.11a13.18,13.18,0,0,1,6.88-4.29,16,16,0,0,1,8.42.3,25.15,25.15,0,0,1,14.43,12.28,15.4,15.4,0,0,1,1.61,7.9,11.78,11.78,0,0,1-3,6.92,8.4,8.4,0,0,1-6.38,3.19,12.06,12.06,0,0,1-7.32-2.31L788,255q4,4.26,4.29,8.36a9.73,9.73,0,0,1-2.59,7.4,11.69,11.69,0,0,1-6.76,4,16.82,16.82,0,0,1-8.64-.73A27.19,27.19,0,0,1,765.24,268.7Z"/><path class="cls-15" d="M149.58,671.85l45-16.16,4.39,12.21-45,16.16Z"/><path class="cls-15" d="M136,624.26,182.18,612,185,622.5,165.1,645.61l.07.27,24.27-6.42L192.76,652l-46.19,12.23-2.82-10.65,19.83-22.82-.09-.36-24.18,6.4Z"/><path class="cls-15" d="M144.77,615.06l-10.35,1.45-5.77-41.12L139,573.94l2,14.23L178,583l1.78,12.66-37,5.19Z"/><path class="cls-15" d="M176,566.42l-47.76,1.29-.93-34.42,10.44-.29.58,21.46,8.21-.22L146,534.55l10.45-.28L157,554l8.21-.22-.58-21.36,10.45-.28Z"/><path class="cls-15" d="M175.2,528l-47.64-3.64,1-12.93,37.22,2.84L167.23,495l10.42.79Z"/><path class="cls-15" d="M178.07,492.88l-47-8.32,2.25-12.78,36.76,6.5,3.37-19,10.29,1.82Z"/><path class="cls-15" d="M184.29,458.31,138.34,445.2l9.45-33.11L157.84,415,152,435.59l7.9,2.26,5.4-18.94,10.05,2.87-5.4,18.94,7.9,2.25,5.86-20.55,10.05,2.87Z"/><path class="cls-15" d="M194.83,421.49l-44.14-18.3,5-12,17.85,7.4.25-.6-12.34-20.68,5.79-14,13.47,23.06,30.81-5.11-5.94,14.31-20.66,3.05,3.53,6.11,11.38,4.72Z"/><path class="cls-15" d="M178.87,363.52l-9.11-5.13,20.39-36.18,9.1,5.13-7.05,12.52,32.52,18.32-6.27,11.14L185.92,351Z"/><path class="cls-15" d="M211.19,292.76l7.68-10.46,24.67,18.12a16.33,16.33,0,0,1,6.72,17.16A28.15,28.15,0,0,1,237.48,335a16.29,16.29,0,0,1-18.35-1.32l-24.68-18.12,7.68-10.45,23.77,17.45a7.87,7.87,0,0,0,3.77,1.55,7,7,0,0,0,3.8-.58,8.52,8.52,0,0,0,4.69-6.38,7.15,7.15,0,0,0-.59-3.79,7.86,7.86,0,0,0-2.61-3.13Z"/><path class="cls-15" d="M259.82,307.93l-35-32.51,23.43-25.23,7.66,7.11L241.29,273l6,5.58,13.4-14.42,7.66,7.11L255,285.73l6,5.59,14.54-15.66,7.66,7.11Z"/><path class="cls-15" d="M286.21,279.93,254.71,244l9.75-8.55,24.61,28.06,14.53-12.73,6.89,7.86Z"/><path class="cls-15" d="M312.79,256.87,285,218l10.54-7.55,21.74,30.35L333,229.57l6.09,8.5Z"/><path class="cls-15" d="M341.4,236.51,317.73,195l29.91-17.06,5.18,9.08-18.64,10.64,4.06,7.13L355.35,195l5.18,9.08-17.11,9.75,4.07,7.13,18.56-10.58,5.18,9.08Z"/><path class="cls-15" d="M397.5,172.56a5.06,5.06,0,0,0-2.95-2.76,7.16,7.16,0,0,0-4.85.5,9.34,9.34,0,0,0-2.88,1.64,4.11,4.11,0,0,0-1.28,1.89,3.17,3.17,0,0,0,.1,2,2.85,2.85,0,0,0,.86,1.33,3.54,3.54,0,0,0,1.52.73,8.54,8.54,0,0,0,2.25.18,21.91,21.91,0,0,0,3-.33l3.95-.65a29.54,29.54,0,0,1,7.13-.41,16.16,16.16,0,0,1,5.48,1.32,11.69,11.69,0,0,1,4,2.91,15,15,0,0,1,2.65,4.37,13.54,13.54,0,0,1,.72,8.29,14.45,14.45,0,0,1-4.39,7.06,28.42,28.42,0,0,1-9.06,5.38A29.28,29.28,0,0,1,393,208.22a14.94,14.94,0,0,1-8.76-2.67,17.48,17.48,0,0,1-6-8.21l11.47-4.49a7.28,7.28,0,0,0,2.36,3,6.17,6.17,0,0,0,3.4,1.1,10.83,10.83,0,0,0,4.25-.84,10.34,10.34,0,0,0,3-1.75,4.66,4.66,0,0,0,1.46-2.1,3.39,3.39,0,0,0-.07-2.2,3,3,0,0,0-1.36-1.53,5.81,5.81,0,0,0-2.64-.57,24.43,24.43,0,0,0-4.39.38l-4.81.78a21.81,21.81,0,0,1-11-.65,11.07,11.07,0,0,1-6.6-6.9,13.11,13.11,0,0,1-.64-8.3,16.21,16.21,0,0,1,4.42-7.46,24.87,24.87,0,0,1,8.65-5.45,23.9,23.9,0,0,1,10-1.84,15,15,0,0,1,8.06,2.69,14.71,14.71,0,0,1,5.15,6.79Z"/><path class="cls-15" d="M459.54,157.59l-12.75,3.26a9.21,9.21,0,0,0-1.44-2.69,7.05,7.05,0,0,0-2.15-1.82,7.14,7.14,0,0,0-2.8-.82,10,10,0,0,0-3.37.31,9.31,9.31,0,0,0-4.95,2.91,9.74,9.74,0,0,0-2.17,5.25,19.65,19.65,0,0,0,.64,7.18,20.09,20.09,0,0,0,3,6.82,9.18,9.18,0,0,0,4.41,3.44,9.53,9.53,0,0,0,5.59.1,10.43,10.43,0,0,0,3-1.24,7.36,7.36,0,0,0,2.07-1.88,7.23,7.23,0,0,0,1.14-2.45,8.39,8.39,0,0,0,.19-2.9l12.77-3.17a17.55,17.55,0,0,1-.13,6.4,19.74,19.74,0,0,1-2.6,6.63,20.24,20.24,0,0,1-5.39,5.78,26.57,26.57,0,0,1-20.66,4,20.27,20.27,0,0,1-10-6,27.41,27.41,0,0,1-6.26-12.24,27.12,27.12,0,0,1-.34-13.8,20.63,20.63,0,0,1,6-10.08,24.2,24.2,0,0,1,10.6-5.61,26.81,26.81,0,0,1,8.38-.87,20.1,20.1,0,0,1,7.36,1.84,18.1,18.1,0,0,1,5.92,4.5A21.23,21.23,0,0,1,459.54,157.59Z"/><path class="cls-15" d="M469.88,186l-5.81-47.43L476.94,137l2.27,18.52,17-2.08L494,134.93l12.87-1.58,5.81,47.43-12.88,1.57-2.26-18.52-17,2.09,2.27,18.52Z"/><path class="cls-15" d="M544.58,133l13,.06-.15,30.61a16.34,16.34,0,0,1-9.93,15.52,25.18,25.18,0,0,1-10.78,2.11,25.5,25.5,0,0,1-10.82-2.22,16.8,16.8,0,0,1-7.19-6.17,17,17,0,0,1-2.53-9.45l.16-30.61,13,.07-.15,29.49a7.9,7.9,0,0,0,1,4,7.08,7.08,0,0,0,2.7,2.73,7.94,7.94,0,0,0,4,1,7.81,7.81,0,0,0,4-1,7,7,0,0,0,2.72-2.71,7.91,7.91,0,0,0,1-4Z"/><path class="cls-15" d="M560.91,181.34l5.59-47.45,12.88,1.51L575,172.48l19.18,2.25L593,185.11Z"/><path class="cls-15" d="M595.77,185.55l10.44-46.63,33.61,7.53-2.29,10.2L616.59,152l-1.8,8L634,164.28l-2.29,10.2-19.21-4.31-1.8,8,20.86,4.67-2.29,10.2Z"/><path class="cls-15" d="M644.61,197.58l3.31-8.72,21.9-7.47a38.21,38.21,0,0,0,3.82-1.5,10.75,10.75,0,0,0,2.78-1.8,6.75,6.75,0,0,0,1.73-2.62,6.05,6.05,0,0,0,.39-3.22,5.38,5.38,0,0,0-1.3-2.65,6.77,6.77,0,0,0-2.72-1.79,6.69,6.69,0,0,0-3.21-.45,5,5,0,0,0-2.73,1.24,7.13,7.13,0,0,0-1.9,2.92l-11.52-4.37a16.08,16.08,0,0,1,5.19-7.31,14.71,14.71,0,0,1,8-3,22.32,22.32,0,0,1,9.74,1.6,24.82,24.82,0,0,1,8.66,5.25,14.93,14.93,0,0,1,4.26,7.11,13.32,13.32,0,0,1-.61,8.08,14,14,0,0,1-3,4.71,22.37,22.37,0,0,1-6,4.16,83.61,83.61,0,0,1-10.66,4.34l-5.51,1.9-.1.27,17.45,6.62-3.67,9.68Z"/><path class="cls-15" d="M699.69,222.56a20.9,20.9,0,0,1-8.58-7.87,19.35,19.35,0,0,1-2.49-11,36.51,36.51,0,0,1,12.46-23.82,18.76,18.76,0,0,1,10.33-4.06,23.46,23.46,0,0,1,19.92,10.41,18.82,18.82,0,0,1,2.6,10.81,31.21,31.21,0,0,1-3.93,13,32.25,32.25,0,0,1-8.54,10.81A19.25,19.25,0,0,1,711,225.11,20.64,20.64,0,0,1,699.69,222.56Zm4.88-9.35c2,1,4.15.85,6.51-.57s4.69-4.34,7-8.8a27.64,27.64,0,0,0,2.86-7.59,10,10,0,0,0-.26-5.36,5.9,5.9,0,0,0-2.82-3.17c-2-1-4.13-.87-6.44.49s-4.61,4.21-6.91,8.55a28.31,28.31,0,0,0-3,7.75,10.17,10.17,0,0,0,.2,5.49A5.8,5.8,0,0,0,704.57,213.21Z"/><path class="cls-15" d="M721.85,233.08l5.26-7.72,23-2.14c1.53-.14,2.89-.33,4.08-.56a10.73,10.73,0,0,0,3.12-1.11,6.72,6.72,0,0,0,2.29-2.13,6.07,6.07,0,0,0,1.13-3,5.3,5.3,0,0,0-.64-2.88,7,7,0,0,0-2.23-2.38,6.71,6.71,0,0,0-3-1.18,5.08,5.08,0,0,0-3,.57,7.11,7.11,0,0,0-2.53,2.39L739.22,206a16.13,16.13,0,0,1,6.76-5.9,14.85,14.85,0,0,1,8.44-1,22.29,22.29,0,0,1,9.1,3.84,24.72,24.72,0,0,1,7.19,7.11,14.93,14.93,0,0,1,2.48,7.92,13.36,13.36,0,0,1-2.48,7.72,14.07,14.07,0,0,1-4,3.87,22.34,22.34,0,0,1-6.77,2.65,83,83,0,0,1-11.38,1.73l-5.8.56-.16.23L758,245.18l-5.84,8.56Z"/><path class="cls-15" d="M768.45,268.38a24.39,24.39,0,0,1-6.32-8,16.7,16.7,0,0,1-1.7-8.56,13.28,13.28,0,0,1,3.24-7.62l9.9,8.53a4,4,0,0,0-1,2.42,5.35,5.35,0,0,0,.62,2.77,8.47,8.47,0,0,0,2.11,2.62,7.42,7.42,0,0,0,2.82,1.58,5,5,0,0,0,2.79,0,4.32,4.32,0,0,0,2.27-1.49,3.88,3.88,0,0,0,1-2.51,5.92,5.92,0,0,0-.76-3,10.2,10.2,0,0,0-2.4-2.89l-3.67-3.17,5.85-6.79,3.67,3.17a8.64,8.64,0,0,0,3,1.75,5.46,5.46,0,0,0,2.89.19,4.12,4.12,0,0,0,2.29-1.42,4.28,4.28,0,0,0,1.1-2.32,4.64,4.64,0,0,0-.38-2.54,6.46,6.46,0,0,0-1.78-2.34,7.68,7.68,0,0,0-2.81-1.59,5.32,5.32,0,0,0-2.79-.1,4.46,4.46,0,0,0-2.3,1.41l-9.4-8.1a13.14,13.14,0,0,1,6.89-4.29,16,16,0,0,1,8.41.29,25.19,25.19,0,0,1,14.44,12.29,15.47,15.47,0,0,1,1.6,7.9,11.75,11.75,0,0,1-3,6.92,8.41,8.41,0,0,1-6.37,3.19,12.07,12.07,0,0,1-7.33-2.31l-.24.28q4,4.26,4.28,8.36a9.69,9.69,0,0,1-2.59,7.4,11.66,11.66,0,0,1-6.76,4,16.72,16.72,0,0,1-8.64-.74A27.12,27.12,0,0,1,768.45,268.38Z"/></g></svg>